Coordinates
version=1
nRows=26
nColumns=22
inDegrees=yes

Units are S.I. units (second, meters, Newtons, ...)
If the header above contains a line with 'inDegrees', this indicates whether rotational values are in degrees (yes) or radians (no).

endheader
time	pelvis_tilt	pelvis_list	pelvis_rotation	pelvis_tx	pelvis_ty	pelvis_tz	hip_flexion_r	hip_adduction_r	hip_rotation_r	knee_angle_r	ankle_angle_r	subtalar_angle_r	hip_flexion_l	hip_adduction_l	hip_rotation_l	knee_angle_l	ankle_angle_l	subtalar_angle_l	lumbar_extension	lumbar_bending	lumbar_rotation
      3.86000000	     -0.36844849	      6.82476638	    170.36165851	      0.15570788	      0.90721731	     -0.48231369	     18.40440911	      2.96650623	      0.11776958	    -21.16427304	     -2.92671440	     12.39447814	     -7.95182596	     -4.05476256	      4.87864650	    -41.97347120	     -6.08367905	     -8.09659660	     -5.28509976	      2.04243343	     -1.38972386
      3.87000000	     -0.51245438	      7.27265748	    171.32600119	      0.14735358	      0.90877276	     -0.48483702	     17.49897782	      3.27002497	     -0.72790033	    -21.10958217	     -2.50452885	     12.51171936	     -6.35590252	     -4.89700199	      4.28775759	    -45.23185373	     -8.01226072	     -7.64107499	     -5.42609864	      2.55639828	     -1.12402050
      3.88000000	     -0.66520084	      7.67412350	    172.34838911	      0.13929949	      0.91020496	     -0.48722207	     16.56158952	      3.55281364	     -1.61125432	    -20.93600016	     -2.09277879	     12.49260770	     -4.64673741	     -5.72547154	      3.80985811	    -48.48757751	     -9.72814504	     -7.21629173	     -5.58790572	      2.99182279	     -0.87470144
      3.89000000	     -0.84581693	      8.01588948	    173.41875286	      0.13148697	      0.91155218	     -0.48943554	     15.56944117	      3.80336503	     -2.50485263	    -20.64207066	     -1.69116553	     12.38608502	     -2.88552684	     -6.48692712	      3.47361147	    -51.65762907	    -11.21829355	     -6.77890557	     -5.78267908	      3.34255239	     -0.62181932
      3.90000000	     -0.98804806	      8.28463810	    174.51136549	      0.12392073	      0.91266250	     -0.49154371	     14.66723528	      4.01047893	     -3.48816528	    -20.37481867	     -1.22517712	     12.11080518	     -1.01920322	     -7.18471467	      3.20035918	    -54.71658254	    -12.30356554	     -6.17739726	     -5.93167958	      3.59337356	     -0.35179017
      3.91000000	     -1.15555098	      8.45747107	    175.61127185	      0.11650228	      0.91373505	     -0.49349378	     13.72447644	      4.15747640	     -4.40150799	    -20.02491135	     -0.72743036	     11.73186358	      0.82887960	     -7.73681050	      3.00964754	    -57.55548526	    -13.09288320	     -5.50644137	     -6.09840656	      3.72388868	     -0.05520484
      3.92000000	     -1.38255835	      8.55952895	    176.72053583	      0.10913966	      0.91486540	     -0.49525374	     12.70191209	      4.25470602	     -5.32910107	    -19.60533582	     -0.28507308	     11.39618926	      2.58839986	     -8.17306112	      2.83603518	    -60.13322099	    -13.51771440	     -4.95063153	     -6.31495418	      3.76683553	      0.28429562
      3.93000000	     -1.61425611	      8.55942823	    177.77498055	      0.10190808	      0.91596274	     -0.49688175	     11.71703761	      4.28498382	     -6.15200914	    -19.23247869	      0.20735282	     10.95203464	      4.30413446	     -8.46000396	      2.60790949	    -62.44797366	    -13.59703790	     -4.38452055	     -6.53655457	      3.69960060	      0.65966541
      3.94000000	     -1.91678506	      8.47971192	    178.80247145	      0.09469117	      0.91719756	     -0.49829058	     10.64714162	      4.25484252	     -6.90727252	    -18.82766927	      0.65688731	     10.71019528	      5.87194865	     -8.61384101	      2.32394102	    -64.45769973	    -13.35642551	     -4.10527230	     -6.83082913	      3.55561550	      1.06644182
      3.95000000	     -2.18059873	      8.29914892	    179.72125345	      0.08748397	      0.91842708	     -0.49958394	      9.64267555	      4.14673624	     -7.57604597	    -18.45970301	      1.11950010	     10.29978867	      7.38442036	     -8.63450168	      1.89252968	    -66.15945086	    -12.92798885	     -3.88644228	     -7.07106070	      3.31353228	      1.55668851
      3.96000000	     -2.48251050	      8.02728726	    180.56410936	      0.08031673	      0.91976681	     -0.50068127	      8.61259448	      3.95804157	     -8.12372259	    -18.11988684	      1.54421967	     10.11348445	      8.74950785	     -8.51638280	      1.35574595	    -67.54781138	    -12.30357117	     -3.88312017	     -7.36264738	      2.99182303	      2.07859275
      3.97000000	     -2.77207784	      7.67548027	    181.29782751	      0.07318949	      0.92113577	     -0.50164809	      7.62057759	      3.69854370	     -8.56141369	    -17.83111588	      1.97364906	      9.91199526	     10.01617351	     -8.29362800	      0.67380932	    -68.63351522	    -11.62788570	     -4.03575502	     -7.64890648	      2.60115150	      2.65243765
      3.98000000	     -3.04543641	      7.26540556	    181.91872919	      0.06612613	      0.92250757	     -0.50250571	      6.66897171	      3.38591229	     -8.88085638	    -17.58698961	      2.39613970	      9.77079320	     11.18770938	     -8.00348785	     -0.15275463	    -69.42691726	    -10.92038279	     -4.30036094	     -7.93044342	      2.16461943	      3.27792392
      3.99000000	     -3.28862392	      6.81155148	    182.45365567	      0.05915252	      0.92383218	     -0.50324267	      5.77231039	      3.02623360	     -9.12830613	    -17.38407678	      2.79507639	      9.69280751	     12.29267767	     -7.65934661	     -1.07443597	    -69.94842890	    -10.17196244	     -4.59124184	     -8.19205249	      1.69660968	      3.91709140
      4.00000000	     -3.50026064	      6.33040384	    182.91471880	      0.05229187	      0.92507639	     -0.50387037	      4.93418192	      2.63350151	     -9.32439175	    -17.22134694	      3.18057040	      9.64293426	     13.34158288	     -7.28890989	     -2.07645444	    -70.21203489	     -9.37653681	     -4.88838197	     -8.43459308	      1.21328113	      4.55789032
      4.01000000	     -3.67413258	      5.84510575	    183.32023946	      0.04555876	      0.92619279	     -0.50441676	      4.15777501	      2.23094123	     -9.49792457	    -17.08760533	      3.55460066	      9.61300065	     14.35542903	     -6.92476215	     -3.12801715	    -70.23827786	     -8.51503697	     -5.13185686	     -8.65283722	      0.73337142	      5.18497352
      4.02000000	     -3.81468669	      5.37167273	    183.68784504	      0.03893169	      0.92716204	     -0.50487693	      3.43279111	      1.83376914	     -9.67511248	    -16.97265778	      3.92198326	      9.58957113	     15.33807237	     -6.58780458	     -4.20631633	    -70.04137570	     -7.58061475	     -5.31236790	     -8.84555681	      0.27478553	      5.78551206
      4.03000000	     -3.92189133	      4.92770665	    184.03801885	      0.03239429	      0.92796003	     -0.50527480	      2.75347710	      1.46332665	     -9.87670328	    -16.86620106	      4.28887204	      9.56748624	     16.29582942	     -6.30255951	     -5.28560062	    -69.62980252	     -6.56128840	     -5.41339500	     -9.01175853	     -0.15117957	      6.34754400
      4.04000000	     -3.99970731	      4.52896653	    184.38564495	      0.02591402	      0.92857832	     -0.50560857	      2.10788916	      1.13802812	    -10.11863275	    -16.75592768	      4.65209497	      9.54194523	     17.22846658	     -6.08747435	     -6.34684880	    -69.01215439	     -5.47578529	     -5.43393515	     -9.15139127	     -0.52876212	      6.86316737
      4.05000000	     -4.05388539	      4.18165975	    184.73910350	      0.01945782	      0.92901708	     -0.50588201	      1.48431900	      0.86635007	    -10.40019969	    -16.63588642	      5.01355687	      9.50996817	     18.12956797	     -5.95130774	     -7.38071166	    -68.19376498	     -4.35153057	     -5.38609204	     -9.26809984	     -0.85227526	      7.33100455
      4.06000000	     -4.08761884	      3.89302812	    185.10232176	      0.01299572	      0.92928345	     -0.50609574	      0.87561547	      0.65897000	    -10.71892994	    -16.49974168	      5.36931742	      9.47262556	     18.99383108	     -5.89941784	     -8.38124801	    -67.17625657	     -3.21745195	     -5.30388378	     -9.36097854	     -1.11703125	      7.75226986
      4.07000000	     -4.10792424	      3.65802978	    185.46976090	      0.00651381	      0.92939805	     -0.50625876	      0.27632998	      0.51196216	    -11.06412547	    -16.35136191	      5.71528564	      9.42767059	     19.80783652	     -5.92576470	     -9.35608391	    -65.95617797	     -2.10427349	     -5.24033226	     -9.43889042	     -1.33044636	      8.13579532
      4.08000000	     -4.11567771	      3.47376687	    185.83411237	     -0.00000311	      0.92937076	     -0.50636453	     -0.31304423	      0.42180397	    -11.41713777	    -16.19401437	      6.05347969	      9.38139445	     20.56471929	     -6.01897255	    -10.30790916	    -64.53041176	     -1.03578501	     -5.24301153	     -9.49981501	     -1.49648560	      8.49180594
      4.09000000	     -4.12016435	      3.32492401	    186.18300095	     -0.00656512	      0.92923387	     -0.50641859	     -0.89737972	      0.37239428	    -11.75926322	    -16.03830762	      6.38638166	      9.33227674	     21.24103380	     -6.16169525	    -11.25880913	    -62.88879486	     -0.03524873	     -5.33876096	     -9.55569984	     -1.63361911	      8.83369000
      4.10000000	     -4.12268221	      3.20598918	    186.50735585	     -0.01317674	      0.92900166	     -0.50641399	     -1.47330062	      0.35571703	    -12.07900029	    -15.89230618	      6.71256694	      9.28760665	     21.82569756	     -6.34089808	    -12.22114131	    -61.02563510	      0.88522199	     -5.52258610	     -9.60628857	     -1.74831368	      9.16891491
      4.11000000	     -4.13439621	      3.10380246	    186.79926809	     -0.01983893	      0.92870202	     -0.50632363	     -2.04789732	      0.35261830	    -12.37247729	    -15.76641767	      7.02398601	      9.24609574	     22.29367316	     -6.54024183	    -13.21902135	    -58.93318351	      1.71379903	     -5.79550783	     -9.66573950	     -1.85014000	      9.50856460
